<svg viewBox="0 0 1866.8361 186.69853" xmlns="http://www.w3.org/2000/svg">
<g fill="#00a8ba" stroke-width="1.33">
<path d="m44.4 142 76.9-.1c3.8 0 6.7.1 8.6.4s4.1 1 6.6 2.4c4.5 2.3 6.8 8.8 6.8 19.5 0 11.7-3.1 18.5-9.2 20.5-2.8 1-7.2 1.5-13 1.5l-98.9.2c-11.7 0-18.5-3.1-20.5-9.4-1-2.7-1.5-6.9-1.5-12.7l-.2-139c0-8.5 1.6-14.3 4.7-17.4 3.2-3.1 9.1-4.6 18-4.7l98.4-.2c3.8 0 6.7.1 8.6.4s4.1 1 6.6 2.4c4.5 2.3 6.8 8.8 6.8 19.5 0 11.7-3.1 18.5-9.2 20.5-2.8 1-7.2 1.5-13 1.5l-76.6.1v25.2l49.4-.1c3.8 0 6.7.1 8.6.4s4.1 1 6.6 2.4c4.5 2.3 6.8 8.8 6.8 19.5 0 11.7-3.1 18.5-9.5 20.5-2.8 1-7.2 1.5-13 1.5l-48.9.1z"/>
<path d="m354 9.7c1.3 2.5 2.1 4.7 2.4 6.7s.4 4.9.4 8.7l.2 139c0 11.5-3.1 18.2-9.4 20.2-3.2 1-7.2 1.5-12 1.5s-8.7-.4-11.5-1.2-5-1.8-6.5-3-2.7-2.8-3.5-5c-.8-2.8-1.3-7.2-1.3-13l-.1-83.6c-4.1 5.2-10.2 13.4-18.2 24.6s-13 18.3-15.2 21.1-3.6 4.8-4.5 5.9c-.8 1.1-2.9 2.6-6.1 4.5s-6.7 2.9-10.5 2.9-7.2-.9-10.2-2.6c-3.1-1.7-5.3-3.4-6.6-5.1l-2-2.7c-3.3-4.2-9.9-13-19.8-26.6-9.8-13.5-15.2-20.8-16-21.8l.1 84.1c0 3.8-.1 6.7-.4 8.6s-1 4-2.4 6.4c-2.5 4.5-9 6.8-19.5 6.8-10.2 0-16.5-2.2-19-6.7-1.3-2.3-2.1-4.5-2.4-6.5s-.4-5-.4-9l-.2-139c0-3.8.1-6.7.4-8.6.2-1.9 1-4.1 2.4-6.6 2.5-4.3 9-6.5 19.5-6.5 4.5 0 8.4.5 11.6 1.6 3.3 1.1 5.4 2.2 6.4 3.4l1.5 1.5 56.8 74.3c28.2-37.5 47.1-62.2 56.5-74.2 2.8-4.5 9.5-6.8 20.1-6.8s17 2.2 19.4 6.7"/>
<path d="m467 85.4c4.8-3.7 7.2-9.2 7.2-16.5s-2.4-12.9-7.3-16.6c-4.8-3.7-9.8-5.6-15-5.6l-31.2.1.1 44.2 31.5-.1c5 0 9.9-1.8 14.7-5.5m44.6-46c4.3 8.8 6.5 18.6 6.5 29.4s-2.1 20.6-6.4 29.3c-4.3 8.8-9.9 15.7-16.7 20.9-13.8 10.7-28.1 16-42.9 16.1l-31.2.1v28.2c0 3.8-.1 6.7-.4 8.6-.2 1.9-1 4.1-2.4 6.6-2.3 4.5-8.8 6.8-19.5 6.8-11.7 0-18.5-3.1-20.5-9.2-1-2.8-1.5-7.2-1.5-13l-.2-139c0-3.8.1-6.7.4-8.6s1-4.1 2.4-6.6c2.3-4.5 8.8-6.8 19.5-6.8l53.4-.1c14.6 0 28.9 5.3 42.7 15.9 6.8 5.2 12.4 12.1 16.8 20.9"/>
<path d="m579 90.7 32-.1c4.8 0 9.6-1.8 14.5-5.5 4.8-3.7 7.2-9.2 7.2-16.5s-2.4-12.9-7.3-16.6c-4.8-3.7-9.8-5.6-15-5.6l-31.5.1zm96 63.5c2.5 6 3.8 10.3 3.8 13 0 6.3-5.1 11.7-15.5 16-5.3 2.3-9.6 3.5-12.9 3.5s-5.9-.8-8-2.4-3.6-3.2-4.6-4.9c-1.7-3.2-8.2-18.2-19.5-45.2l-7.7.5-31.5.1v28.2c0 3.8-.1 6.7-.4 8.6-.2 1.9-1 4.1-2.4 6.6-2.3 4.5-8.8 6.8-19.5 6.8-11.7 0-18.5-3.1-20.5-9.2-1-2.8-1.5-7.2-1.5-13l-.2-139c0-3.8.1-6.7.4-8.6.2-1.9 1-4.1 2.4-6.6 2.3-4.5 8.8-6.8 19.5-6.8l53.9-.1c14.6 0 28.9 5.3 42.7 15.9 6.7 5.1 12.2 12.1 16.5 20.9s6.5 18.6 6.5 29.4c0 18.8-6.2 34.3-18.6 46.5 3.7 8.8 9.4 21.9 17 39.2"/>
<path d="m736 141 76.9-.1c3.8 0 6.7.1 8.6.4s4.1 1 6.6 2.4c4.5 2.3 6.8 8.8 6.8 19.5 0 11.7-3 18.5-9.2 20.5-2.8 1-7.2 1.5-13 1.5l-98.9.2c-11.7 0-18.5-3.1-20.5-9.4-1-2.7-1.5-6.9-1.5-12.7l-.2-139c0-8.5 1.6-14.3 4.7-17.4 3.1-3.1 9.1-4.6 18-4.7l98.4-.2c3.8 0 6.7.1 8.6.4s4.1 1 6.6 2.4c4.5 2.3 6.8 8.8 6.8 19.5 0 11.7-3 18.5-9.2 20.5-2.8 1-7.2 1.5-13 1.5l-76.6.1v25.2l49.4-.1c3.8 0 6.7.1 8.6.4s4.1 1 6.6 2.4c4.5 2.3 6.8 8.8 6.8 19.5 0 11.7-3.1 18.5-9.5 20.5-2.8 1-7.2 1.5-13 1.5l-48.9.1z"/>
<path d="m969 9.3c1.6-2.9 3.9-4.9 7.1-5.9s7.1-1.5 11.9-1.5c4.7 0 8.6.4 11.5 1.2s5.1 1.8 6.5 3 2.5 2.9 3.1 5.2c1 2.7 1.5 6.9 1.5 12.7l.2 139c0 4-.1 6.9-.4 8.7s-1 4-2.4 6.5c-2.3 4.5-8.8 6.8-19.5 6.8-6.5 0-11-.5-13.5-1.5s-4.6-2.6-6.3-4.7c-37.5-49.9-62.2-82.4-74.1-97.7l.1 82.1c0 4-.1 6.9-.4 8.7-.2 1.8-1 4-2.4 6.5-2.3 4.5-8.8 6.8-19.5 6.8-10.3 0-16.6-2.2-19-6.7-1.3-2.5-2.1-4.7-2.4-6.7s-.4-4.9-.4-8.7l-.2-139c0-6.3.8-10.9 2.4-13.9 1.6-2.9 3.9-4.9 7.1-5.9s7.2-1.5 12.2-1.5 9 .4 11.9 1.4c2.9.9 5 2 6.1 3.1.7.5 2.6 2.7 5.8 6.5 35.2 47.7 58.7 79.2 70.6 94.5l-.1-84.4c0-6.3.8-10.9 2.4-13.9"/>
<path d="m1130 127c9.6-8.9 14.4-20.1 14.4-33.6s-4.8-24.7-14.2-33.8c-9.4-9-20.5-13.6-33.1-13.6h-24l .2 94.4h24.2c12 0 22.8-4.5 32.4-13.4m-78.9-125 46.2.2c24.1 0 45.4 8.6 63.7 26s27.5 38.7 27.6 64.1c0 25.4-8.9 47.2-26.7 65.3-17.9 18.2-39.5 27.3-65 27.3l-45.7.1c-10.2 0-16.5-2.1-19-6.2-2-3.5-3-8.8-3-16l-.2-139c0-4 .1-6.9.4-8.7.2-1.8 1-4 2.4-6.5 2.3-4.5 8.8-6.8 19.5-6.8"/>
<path d="m1250 140 76.9-.1c3.8 0 6.7.1 8.6.4s4.1 1 6.6 2.4c4.5 2.3 6.8 8.8 6.8 19.5 0 11.7-3 18.5-9.2 20.5-2.8 1-7.2 1.5-13 1.5l-98.9.2c-11.7 0-18.5-3.1-20.5-9.4-1-2.7-1.5-6.9-1.5-12.7l-.2-139c0-8.5 1.6-14.3 4.7-17.4 3.2-3.1 9.1-4.6 18-4.7l98.4-.2c3.8 0 6.7.1 8.6.4s4.1 1 6.6 2.4c4.5 2.3 6.8 8.8 6.8 19.5 0 11.7-3 18.5-9.2 20.5-2.8 1-7.2 1.5-13 1.5l-76.6.1v25.2l49.4-.1c3.8 0 6.7.1 8.6.4s4.1 1 6.6 2.4c4.5 2.3 6.8 8.8 6.8 19.5 0 11.7-3.1 18.5-9.5 20.5-2.8 1-7.2 1.5-13 1.5l-48.9.1z"/>
</g>
<g fill="#9c9c9c" stroke-width="1.33">
<path d="m1480 7.6c1.3-2.5 3.6-4.3 6.7-5.3s7.2-1.5 12-1.5 8.7.4 11.5 1.2 5 1.8 6.5 3 2.7 2.8 3.5 5c .8 2.8 1.3 7.2 1.3 13l .2 139c0 3.8-.1 6.7-.4 8.6-.2 1.9-1 4.1-2.4 6.6-2.3 4.5-8.8 6.8-19.5 6.8-11.7 0-18.5-3.1-20.5-9.2-1-2.8-1.5-7.2-1.5-13l-.1-50.7-66.2.1.1 50.9c0 3.8-.1 6.7-.4 8.6-.2 1.9-1 4.1-2.4 6.6-2.3 4.5-8.8 6.8-19.5 6.8-11.7 0-18.5-3.1-20.5-9.2-1-2.8-1.5-7.2-1.5-13l-.2-139c0-3.8.1-6.7.4-8.6.2-1.9 1-4.1 2.4-6.6 2.3-4.5 8.8-6.8 19.5-6.8 11.6 0 18.6 3.1 20.7 9.2.8 2.8 1.3 7.2 1.3 13l .1 50.9 66.2-.1-.1-51.2c0-3.8.1-6.7.4-8.6.2-1.9 1-4.1 2.4-6.6"/>
<path d="m1660 7.2c1.7-2.7 4.1-4.5 7.2-5.5 3.2-1 7.1-1.5 11.9-1.5 4.7 0 8.5.4 11.4 1.2 2.8.8 5 1.8 6.5 3s2.6 2.9 3.3 5.2c1 2.8 1.5 7.2 1.5 13l .1 75.4c0 22-6.8 42-20.4 60-6.7 8.5-15.2 15.4-25.7 20.6-10.5 5.3-22.1 7.9-34.8 7.9s-24.3-2.6-34.7-7.9-18.9-12.3-25.4-20.9c-13.5-17.6-20.3-37.6-20.3-59.9l-.1-75.1c0-4 .1-7 .4-8.9.2-1.9 1-4.1 2.4-6.6s3.6-4.3 6.7-5.3 7.4-1.5 12.7-1.5 9.6.5 12.7 1.5c3.2 1 5.3 2.7 6.5 5.2 2 3.8 3 9.1 3 15.7l.1 74.9c0 10.2 2.5 19.8 7.5 28.9 2.5 4.7 6.3 8.4 11.3 11.2s10.9 4.2 17.7 4.2c12.1 0 21.2-4.5 27.2-13.5s9-19.4 8.9-31.2l-.1-76.4c0-6.5.8-11.1 2.5-13.7"/>
<path d="m1820 122c0-4-.5-7.2-1.4-9.5s-2.5-4-4.6-5c-3.3-1.3-8-2-14-2s-10.5-1.1-13.5-3.5c-3-2.3-4.5-7.1-4.5-14.3s1.5-12 4.6-14.4c3.1-2.3 8.2-3.5 15.3-3.5 6.7 0 10.6-1.8 12-5.3.5-1.8.7-4.8.7-9s-1.4-7.1-4.1-8.7c-2.8-1.7-6.9-2.5-12.4-2.5l-35 .1.2 94.6 40.9-.1c10.5 0 15.7-5.7 15.7-17m29.4-36.7c9.8 11.6 14.8 24.7 14.8 39.2-.3 16.6-6 30.6-17 41.8-11.1 11.3-24.5 16.9-40.3 16.9l-65.7.1c-11.7 0-18.5-3.1-20.5-9.4-1-2.8-1.5-7.2-1.5-13l-.2-139c0-4 .1-6.9.4-8.7.2-1.8 1-4 2.4-6.5 2.3-4.5 8.8-6.8 19.5-6.8l62.9-.1c15.3 0 28.1 5.3 38.5 15.9 10.8 10.8 16.3 23.8 16.3 38.9 0 11-3.1 21.1-9.4 30.2"/>
</g>
</svg>
